<svg width="181" height="181" viewBox="0 0 181 181" fill="none" xmlns="http://www.w3.org/2000/svg">
<path fill-rule="evenodd" clip-rule="evenodd" d="M90.3632 180.675C140.269 180.675 180.726 140.23 180.726 90.3375C180.726 40.4455 140.269 0 90.3632 0C40.457 0 0 40.4455 0 90.3375C0 140.23 40.457 180.675 90.3632 180.675ZM85.5042 36.6308C81.8621 36.6308 79.3959 40.34 80.8059 43.6971L97.3739 83.1456L66.5441 87.3315L69.0872 76.1493C69.6311 73.7576 67.8128 71.4801 65.3593 71.4801C63.9211 71.4801 62.6045 72.2871 61.9522 73.5685L52.6004 91.9391C51.9271 93.2617 52.2057 94.8697 53.2847 95.8889C53.8514 96.4242 54.5873 96.745 55.3653 96.7958L59.8623 97.0893L64.0271 97.24L104.225 99.4584L118.214 132.766C119.009 134.658 120.86 135.888 122.912 135.888L136.373 135.888C140.015 135.888 142.482 132.179 141.072 128.822L129.169 100.483C129.878 100.227 130.518 99.7904 131.021 99.2037L137.487 91.6622C139.565 89.2385 138.463 85.479 135.405 84.5606L121.234 80.3055C121.039 80.2467 120.84 80.2018 120.638 80.1707L103.663 39.7528C102.869 37.8613 101.017 36.6308 98.965 36.6308H85.5042ZM62.1646 123.789C62.1646 130.823 56.461 136.524 49.4253 136.524C42.3896 136.524 36.686 130.823 36.686 123.789C36.686 116.755 42.3896 111.053 49.4253 111.053C56.461 111.053 62.1646 116.755 62.1646 123.789Z" fill="#FFDC5E"/>
<path fill-rule="evenodd" clip-rule="evenodd" d="M80.8057 43.6971C79.3957 40.3399 81.8619 36.6307 85.504 36.6307L98.9648 36.6307C101.017 36.6307 102.869 37.8613 103.663 39.7528L120.638 80.1707C120.839 80.2018 121.038 80.2468 121.234 80.3056L135.404 84.5606C138.463 85.479 139.565 89.2385 137.487 91.6622L131.021 99.2037C130.518 99.7904 129.877 100.227 129.169 100.483L141.071 128.822C142.481 132.179 140.015 135.888 136.373 135.888L122.912 135.888C120.86 135.888 119.008 134.658 118.214 132.766L104.225 99.4584L64.0248 97.2398L59.8622 97.0893L55.3652 96.7957C54.5872 96.7449 53.8513 96.4242 53.2846 95.8889C52.2056 94.8697 51.927 93.2617 52.6003 91.939L61.9521 73.5685C62.6044 72.287 63.921 71.48 65.3592 71.48C67.8126 71.48 69.631 73.7575 69.0871 76.1492L66.544 87.3315L97.3737 83.1456L80.8057 43.6971ZM49.4251 136.524C56.4608 136.524 62.1643 130.823 62.1643 123.789C62.1643 116.755 56.4608 111.053 49.4251 111.053C42.3894 111.053 36.6859 116.755 36.6859 123.789C36.6859 130.823 42.3894 136.524 49.4251 136.524Z" fill="#00414F"/>
</svg>
